<svg xmlns="http://www.w3.org/2000/svg" xmlns:svg="http://www.w3.org/2000/svg" xmlns:xlink="http://www.w3.org/1999/xlink" version="1.0" height="630pt" width="750pt" viewBox="695 147 758 636" ><defs><style type="text/css">
            @font-face {
                font-family: 'noto_regular';
                src: url('https://app.creately.com/diagram/assets/fonts/noto/noto-regular.woff') format('woff'),
                     url('https://app.creately.com/diagram/assets/fonts/noto/noto-regular.woff2') format('woff2');
                font-weight: normal;
                font-style: normal;
            }
        p {
            margin: 0;
        }
        </style></defs><defs><style>
            span{ display: inline-block; }
        </style></defs><g id="CIQxHk7Nr0u"><g transform="translate(990 440)"><rect x="0" y="0" width="140" height="30" fill="rgba(255,255,255,0.01)" stroke="rgba(255,255,255,0.01)"/><path d="M 138.9,2.2 L 137.9,2 L 2.2,2 C 2,2 1,2.2 1,2.2" fill="rgb(9, 42, 53)" stroke="rgba(255,255,255,0.01)"/><path d="M 0.9,2.3 C 0.9,2.3 3.3,0.5 4.1,0 L 135,0 C 135.1,0 135.2,0 135.3,0.1 L 137.60000000000002,1.1 C 137.70000000000002,1.2000000000000002 137.8,1.2000000000000002 137.90000000000003,1.3 C 138.20000000000005,1.5 138.90000000000003,2.1 139.10000000000002,2.5" fill="rgb(9, 42, 53)" stroke="rgba(255,255,255,0.01)"/><path d="M 140,30 L -0.1,30 L -0.1,4.3 C -0.1,2.9 1.0999999999999999,1.6999999999999997 2.5,1.6999999999999997 L 137.4,1.6999999999999997 C 138.8,1.6999999999999997 140,2.8999999999999995 140,4.3 L 140,30 Z" fill="rgb(50, 72, 93)" stroke="rgba(255,255,255,0.01)"/><path d="M 131.8,24.7 L 32.1,24.7 C 31,24.7 30.1,23.8 30.1,22.7 L 30.1,10.9 C 30.1,9.8 31,8.9 32.1,8.9 L 131.8,8.9 C 132.9,8.9 133.8,9.8 133.8,10.9 L 133.8,22.700000000000003 C 133.8,23.800000000000004 132.9,24.700000000000003 131.8,24.700000000000003 Z" fill="rgb(225, 241, 249)" stroke="rgba(255,255,255,0.01)"/><path d="M 126.4,12.3 L 117.30000000000001,12.3 C 117.00000000000001,12.3 116.80000000000001,12.5 116.80000000000001,12.8 L 116.80000000000001,17.6 C 116.80000000000001,17.900000000000002 117.00000000000001,18.1 117.30000000000001,18.1 L 118.4,18.1 C 118.7,18.1 118.9,18.3 118.9,18.6 L 118.9,20.200000000000003 C 118.9,20.500000000000004 119.10000000000001,20.700000000000003 119.4,20.700000000000003 L 120.5,20.700000000000003 C 120.8,20.700000000000003 121,20.900000000000002 121,21.200000000000003 C 121,21.500000000000004 121.2,21.700000000000003 121.5,21.700000000000003 L 122,21.700000000000003 C 122.3,21.700000000000003 122.5,21.500000000000004 122.5,21.200000000000003 C 122.5,20.900000000000002 122.7,20.700000000000003 123,20.700000000000003 L 124.1,20.700000000000003 C 124.39999999999999,20.700000000000003 124.6,20.500000000000004 124.6,20.200000000000003 L 124.6,18.6 C 124.6,18.3 124.8,18.1 125.1,18.1 L 126.19999999999999,18.1 C 126.49999999999999,18.1 126.69999999999999,17.900000000000002 126.69999999999999,17.6 L 126.69999999999999,12.8 C 126.99999999999999,12.5 126.69999999999999,12.3 126.39999999999999,12.3 Z M 110.5,12.3 L 101.4,12.3 C 101.10000000000001,12.3 100.9,12.5 100.9,12.8 L 100.9,17.6 C 100.9,17.900000000000002 101.10000000000001,18.1 101.4,18.1 L 102.5,18.1 C 102.8,18.1 103,18.3 103,18.6 L 103,20.200000000000003 C 103,20.500000000000004 103.2,20.700000000000003 103.5,20.700000000000003 L 104.6,20.700000000000003 C 104.89999999999999,20.700000000000003 105.1,20.900000000000002 105.1,21.200000000000003 C 105.1,21.500000000000004 105.3,21.700000000000003 105.6,21.700000000000003 L 106.1,21.700000000000003 C 106.39999999999999,21.700000000000003 106.6,21.500000000000004 106.6,21.200000000000003 C 106.6,20.900000000000002 106.8,20.700000000000003 107.1,20.700000000000003 L 108.19999999999999,20.700000000000003 C 108.49999999999999,20.700000000000003 108.69999999999999,20.500000000000004 108.69999999999999,20.200000000000003 L 108.69999999999999,18.6 C 108.69999999999999,18.3 108.89999999999999,18.1 109.19999999999999,18.1 L 110.29999999999998,18.1 C 110.59999999999998,18.1 110.79999999999998,17.900000000000002 110.79999999999998,17.6 L 110.79999999999998,12.8 C 110.99999999999999,12.5 110.79999999999998,12.3 110.49999999999999,12.3 Z M 94.5,12.3 L 85.4,12.3 C 85.10000000000001,12.3 84.9,12.5 84.9,12.8 L 84.9,17.6 C 84.9,17.900000000000002 85.10000000000001,18.1 85.4,18.1 L 86.5,18.1 C 86.8,18.1 87,18.3 87,18.6 L 87,20.200000000000003 C 87,20.500000000000004 87.2,20.700000000000003 87.5,20.700000000000003 L 88.6,20.700000000000003 C 88.89999999999999,20.700000000000003 89.1,20.900000000000002 89.1,21.200000000000003 C 89.1,21.500000000000004 89.3,21.700000000000003 89.6,21.700000000000003 L 90.1,21.700000000000003 C 90.39999999999999,21.700000000000003 90.6,21.500000000000004 90.6,21.200000000000003 C 90.6,20.900000000000002 90.8,20.700000000000003 91.1,20.700000000000003 L 92.19999999999999,20.700000000000003 C 92.49999999999999,20.700000000000003 92.69999999999999,20.500000000000004 92.69999999999999,20.200000000000003 L 92.69999999999999,18.6 C 92.69999999999999,18.3 92.89999999999999,18.1 93.19999999999999,18.1 L 94.29999999999998,18.1 C 94.59999999999998,18.1 94.79999999999998,17.900000000000002 94.79999999999998,17.6 L 94.79999999999998,12.8 C 94.99999999999999,12.5 94.79999999999998,12.3 94.49999999999999,12.3 Z M 78.5,12.3 L 69.4,12.3 C 69.10000000000001,12.3 68.9,12.5 68.9,12.8 L 68.9,17.6 C 68.9,17.900000000000002 69.10000000000001,18.1 69.4,18.1 L 70.5,18.1 C 70.8,18.1 71,18.3 71,18.6 L 71,20.200000000000003 C 71,20.500000000000004 71.2,20.700000000000003 71.5,20.700000000000003 L 72.6,20.700000000000003 C 72.89999999999999,20.700000000000003 73.1,20.900000000000002 73.1,21.200000000000003 C 73.1,21.500000000000004 73.3,21.700000000000003 73.6,21.700000000000003 L 74.1,21.700000000000003 C 74.39999999999999,21.700000000000003 74.6,21.500000000000004 74.6,21.200000000000003 C 74.6,20.900000000000002 74.8,20.700000000000003 75.1,20.700000000000003 L 76.19999999999999,20.700000000000003 C 76.49999999999999,20.700000000000003 76.69999999999999,20.500000000000004 76.69999999999999,20.200000000000003 L 76.69999999999999,18.6 C 76.69999999999999,18.3 76.89999999999999,18.1 77.19999999999999,18.1 L 78.29999999999998,18.1 C 78.59999999999998,18.1 78.79999999999998,17.900000000000002 78.79999999999998,17.6 L 78.79999999999998,12.8 C 78.99999999999999,12.5 78.79999999999998,12.3 78.49999999999999,12.3 Z M 62.5,12.3 L 53.4,12.3 C 53.1,12.3 52.9,12.5 52.9,12.8 L 52.9,17.6 C 52.9,17.900000000000002 53.1,18.1 53.4,18.1 L 54.5,18.1 C 54.8,18.1 55,18.3 55,18.6 L 55,20.200000000000003 C 55,20.500000000000004 55.2,20.700000000000003 55.5,20.700000000000003 L 56.6,20.700000000000003 C 56.9,20.700000000000003 57.1,20.900000000000002 57.1,21.200000000000003 C 57.1,21.500000000000004 57.300000000000004,21.700000000000003 57.6,21.700000000000003 L 58.1,21.700000000000003 C 58.4,21.700000000000003 58.6,21.500000000000004 58.6,21.200000000000003 C 58.6,20.900000000000002 58.800000000000004,20.700000000000003 59.1,20.700000000000003 L 60.2,20.700000000000003 C 60.5,20.700000000000003 60.7,20.500000000000004 60.7,20.200000000000003 L 60.7,18.6 C 60.7,18.3 60.900000000000006,18.1 61.2,18.1 L 62.300000000000004,18.1 C 62.6,18.1 62.800000000000004,17.900000000000002 62.800000000000004,17.6 L 62.800000000000004,12.8 C 63.00000000000001,12.5 62.800000000000004,12.3 62.50000000000001,12.3 Z M 46.5,12.3 L 37.4,12.3 C 37.1,12.3 36.9,12.5 36.9,12.8 L 36.9,17.6 C 36.9,17.900000000000002 37.1,18.1 37.4,18.1 L 38.5,18.1 C 38.8,18.1 39,18.3 39,18.6 L 39,20.200000000000003 C 39,20.500000000000004 39.2,20.700000000000003 39.5,20.700000000000003 L 40.6,20.700000000000003 C 40.9,20.700000000000003 41.1,20.900000000000002 41.1,21.200000000000003 C 41.1,21.500000000000004 41.300000000000004,21.700000000000003 41.6,21.700000000000003 L 42.1,21.700000000000003 C 42.4,21.700000000000003 42.6,21.500000000000004 42.6,21.200000000000003 C 42.6,20.900000000000002 42.800000000000004,20.700000000000003 43.1,20.700000000000003 L 44.2,20.700000000000003 C 44.5,20.700000000000003 44.7,20.500000000000004 44.7,20.200000000000003 L 44.7,18.6 C 44.7,18.3 44.900000000000006,18.1 45.2,18.1 L 46.300000000000004,18.1 C 46.6,18.1 46.800000000000004,17.900000000000002 46.800000000000004,17.6 L 46.800000000000004,12.8 C 47.00000000000001,12.5 46.800000000000004,12.3 46.50000000000001,12.3 Z" fill="rgb(71, 82, 99)" stroke="rgba(255,255,255,0.01)"/><path d="M 7.8999999999999995,20.4 C 7.899999980524051,22.170540825514852 9.81666663501825,23.277128863160033 11.349999978089556,22.391858467269273 C 12.061622474809218,21.981003037663914 12.50000000903882,21.221710874866414 12.5,20.4 C 12.50000001947595,18.629459174485145 10.58333336498175,17.522871136839964 9.050000021910442,18.408141532730724 C 8.338377525190781,18.818996962336083 7.89999999096118,19.578289125133583 7.8999999999999995,20.4" fill="rgb(216, 109, 63)" stroke="rgba(255,255,255,0.01)"/><path d="M 15.099999999999998,20.4 C 15.099999950424856,22.17054082551485 17.016666586107057,23.277128894206978 18.549999944227963,22.391858524382886 C 19.261622472127332,21.981003092906025 19.700000023007902,21.22171090280458 19.699999999999996,20.4 C 19.700000049575138,18.62945917448515 17.78333341389294,17.52287110579302 16.250000055772034,18.40814147561711 C 15.538377527872665,18.81899690709397 15.099999976992093,19.578289097195416 15.099999999999998,20.4" fill="rgb(216, 109, 63)" stroke="rgba(255,255,255,0.01)"/><path d="M 22,11 L 7.5,11 C 7.3,11 7.2,10.9 7.2,10.7 C 7.2,10.5 7.3,10.399999999999999 7.5,10.399999999999999 L 22,10.399999999999999 C 22.2,10.399999999999999 22.3,10.499999999999998 22.3,10.7 C 22.3,10.899999999999999 22.2,11 22,11 Z M 22,14.3 L 7.5,14.3 C 7.3,14.3 7.2,14.200000000000001 7.2,14 C 7.2,13.8 7.3,13.7 7.5,13.7 L 22,13.7 C 22.2,13.7 22.3,13.799999999999999 22.3,14 C 22.3,14.1 22.2,14.3 22,14.3 Z" fill="rgb(39, 51, 63)" stroke="rgba(255,255,255,0.01)"/></g><g transform="translate(1060, 480) rotate(0, 0, 0)" width="0" height="36"><text text-decoration="none" x="0" fill="#4b4b4b" font-size="10pt" font-family="noto_regular"  y="15"></text></g></g><g id="krgNv8Ccgle"><g transform="translate(710 320)"><rect x="0" y="0" width="130" height="110" fill="rgba(255,255,255,0.01)" stroke="rgba(255,255,255,0.01)"/><path d="M 127.9,110 L 84.3,110 C 83.1,110 82.2,109 82.2,107.9 L 82.2,2.1 C 82.2,0.9000000000000001 83.2,0 84.3,0 L 127.9,0 C 129.1,0 130,1 130,2.1 L 130,107.8 C 130,109 129,110 127.9,110 Z" fill="rgb(27, 46, 61)" stroke="rgba(255,255,255,0.01)"/><path d="M 125.4,105.1 L 86.3,105.1 C 85.1,105.1 84.2,104.1 84.2,103 L 84.2,4.2 C 84.2,3 85.2,2.1 86.3,2.1 L 125.4,2.1 C 126.60000000000001,2.1 127.5,3.1 127.5,4.2 L 127.5,103 C 127.5,104.2 126.5,105.1 125.4,105.1 Z" fill="rgb(216, 221, 225)" stroke="rgba(255,255,255,0.01)"/><path d="M 122.9,10.3 L 89.2,10.3 C 88.60000000000001,10.3 88.2,9.8 88.2,9.3 L 88.2,8.1 C 88.2,7.5 88.7,7.1 89.2,7.1 L 122.9,7.1 C 123.5,7.1 123.9,7.6 123.9,8.1 L 123.9,9.299999999999999 C 123.9,9.799999999999999 123.5,10.299999999999999 122.9,10.299999999999999 Z M 123.10000000000001,24.700000000000003 L 89.4,24.700000000000003 C 88.80000000000001,24.700000000000003 88.4,24.200000000000003 88.4,23.700000000000003 L 88.4,19.700000000000003 C 88.4,19.1 88.9,18.700000000000003 89.4,18.700000000000003 L 123.10000000000001,18.700000000000003 C 123.7,18.700000000000003 124.10000000000001,19.200000000000003 124.10000000000001,19.700000000000003 L 124.10000000000001,23.700000000000003 C 124.10000000000001,24.200000000000003 123.7,24.700000000000003 123.10000000000001,24.700000000000003 Z" fill="rgb(54, 72, 92)" stroke="rgba(255,255,255,0.01)"/><path d="M 123.6,106.1 L 88.9,106.1 C 88.60000000000001,106.1 88.4,105.89999999999999 88.4,105.6 L 88.4,105 C 88.4,104.7 88.60000000000001,104.5 88.9,104.5 L 123.60000000000001,104.5 C 123.9,104.5 124.10000000000001,104.7 124.10000000000001,105 L 124.10000000000001,105.5 C 124.10000000000001,105.9 123.9,106.1 123.60000000000001,106.1 Z" fill="rgb(42, 110, 209)" stroke="rgba(255,255,255,0.01)"/><path d="M 82.1,78 L 130,78 L 130,79 L 82.1,79 Z M 82.1,14 L 130,14 L 130,15 L 82.1,15 Z" fill="rgb(73, 90, 94)" stroke="rgba(255,255,255,0.01)"/><path d="M 103.7,57.8 C 103.7,59.87846096908265 105.86666666666667,61.17749907475931 107.60000000000001,60.13826859021798 C 108.40444279957212,59.655960043841965 108.9,58.76461709275204 108.9,57.8 C 108.9,55.72153903091734 106.73333333333335,54.42250092524068 105.00000000000001,55.46173140978201 C 104.1955572004279,55.94403995615803 103.7,56.835382907247954 103.7,57.8" fill="rgb(42, 110, 209)" stroke="rgba(255,255,255,0.01)"/><path d="M 52.3,100.5 L 45.5,100.5 C 44.4,100.5 43.5,99.6 43.5,98.5 L 43.5,86.7 C 43.5,85.60000000000001 44.4,84.7 45.5,84.7 L 52.3,84.7 C 53.4,84.7 54.3,85.60000000000001 54.3,86.7 L 54.3,98.5 C 54.3,99.6 53.4,100.5 52.3,100.5 Z" fill="rgb(27, 46, 61)" stroke="rgba(255,255,255,0.01)"/><path d="M 96.9,91 L 0.8,91 C 0.20000000000000007,91 -0.19999999999999996,90.5 -0.19999999999999996,90 L -0.19999999999999996,30 C -0.19999999999999996,29.4 0.30000000000000004,29 0.8,29 L 96.89999999999999,29 C 97.49999999999999,29 97.89999999999999,29.5 97.89999999999999,30 L 97.89999999999999,90 C 97.89999999999999,90.6 97.49999999999999,91 96.89999999999999,91 Z" fill="rgb(50, 69, 86)" stroke="rgba(255,255,255,0.01)"/><path d="M 95.1,89 L 2.7,89 C 2.1,89 1.7000000000000002,88.5 1.7000000000000002,88 L 1.7000000000000002,32.1 C 1.7000000000000002,31.5 2.2,31.1 2.7,31.1 L 95.10000000000001,31.1 C 95.7,31.1 96.10000000000001,31.6 96.10000000000001,32.1 L 96.10000000000001,88 C 96.10000000000001,88.5 95.60000000000001,89 95.10000000000001,89 Z" fill="rgb(220, 241, 249)" stroke="rgba(255,255,255,0.01)"/><path d="M 71,102.3 L 26.8,102.3 C 26.1,102.3 25.5,101.7 25.5,101 L 25.5,100.5 C 25.5,99.8 26.1,99.2 26.8,99.2 L 71,99.2 C 71.7,99.2 72.3,99.8 72.3,100.5 L 72.3,101 C 72.3,101.7 71.7,102.3 71,102.3 Z" fill="rgb(34, 38, 40)" stroke="rgba(255,255,255,0.01)"/><path d="M 71.6,101.5 L 26.1,101.5 C 25.700000000000003,101.5 25.400000000000002,101.2 25.400000000000002,100.8 L 25.400000000000002,99.39999999999999 C 25.400000000000002,98.99999999999999 25.700000000000003,98.69999999999999 26.1,98.69999999999999 L 71.6,98.69999999999999 C 72,98.69999999999999 72.3,98.99999999999999 72.3,99.39999999999999 L 72.3,100.8 C 72.3,101.2 72,101.5 71.6,101.5 Z" fill="rgb(50, 69, 86)" stroke="rgba(255,255,255,0.01)"/></g><g transform="translate(775, 440) rotate(0, 0, 0)" width="0" height="36"><text text-decoration="none" x="0" fill="#4b4b4b" font-size="10pt" font-family="noto_regular"  y="15"></text></g></g><g id="LS2HKJ5Bsof"><g transform="translate(950 150)"><rect x="0" y="0" width="130" height="110" fill="rgba(255,255,255,0.01)" stroke="rgba(255,255,255,0.01)"/><path d="M 127.9,110 L 84.3,110 C 83.1,110 82.2,109 82.2,107.9 L 82.2,2.1 C 82.2,0.9000000000000001 83.2,0 84.3,0 L 127.9,0 C 129.1,0 130,1 130,2.1 L 130,107.8 C 130,109 129,110 127.9,110 Z" fill="rgb(27, 46, 61)" stroke="rgba(255,255,255,0.01)"/><path d="M 125.4,105.1 L 86.3,105.1 C 85.1,105.1 84.2,104.1 84.2,103 L 84.2,4.2 C 84.2,3 85.2,2.1 86.3,2.1 L 125.4,2.1 C 126.60000000000001,2.1 127.5,3.1 127.5,4.2 L 127.5,103 C 127.5,104.2 126.5,105.1 125.4,105.1 Z" fill="rgb(216, 221, 225)" stroke="rgba(255,255,255,0.01)"/><path d="M 122.9,10.3 L 89.2,10.3 C 88.60000000000001,10.3 88.2,9.8 88.2,9.3 L 88.2,8.1 C 88.2,7.5 88.7,7.1 89.2,7.1 L 122.9,7.1 C 123.5,7.1 123.9,7.6 123.9,8.1 L 123.9,9.299999999999999 C 123.9,9.799999999999999 123.5,10.299999999999999 122.9,10.299999999999999 Z M 123.10000000000001,24.700000000000003 L 89.4,24.700000000000003 C 88.80000000000001,24.700000000000003 88.4,24.200000000000003 88.4,23.700000000000003 L 88.4,19.700000000000003 C 88.4,19.1 88.9,18.700000000000003 89.4,18.700000000000003 L 123.10000000000001,18.700000000000003 C 123.7,18.700000000000003 124.10000000000001,19.200000000000003 124.10000000000001,19.700000000000003 L 124.10000000000001,23.700000000000003 C 124.10000000000001,24.200000000000003 123.7,24.700000000000003 123.10000000000001,24.700000000000003 Z" fill="rgb(54, 72, 92)" stroke="rgba(255,255,255,0.01)"/><path d="M 123.6,106.1 L 88.9,106.1 C 88.60000000000001,106.1 88.4,105.89999999999999 88.4,105.6 L 88.4,105 C 88.4,104.7 88.60000000000001,104.5 88.9,104.5 L 123.60000000000001,104.5 C 123.9,104.5 124.10000000000001,104.7 124.10000000000001,105 L 124.10000000000001,105.5 C 124.10000000000001,105.9 123.9,106.1 123.60000000000001,106.1 Z" fill="rgb(42, 110, 209)" stroke="rgba(255,255,255,0.01)"/><path d="M 82.1,78 L 130,78 L 130,79 L 82.1,79 Z M 82.1,14 L 130,14 L 130,15 L 82.1,15 Z" fill="rgb(73, 90, 94)" stroke="rgba(255,255,255,0.01)"/><path d="M 103.7,57.8 C 103.7,59.87846096908265 105.86666666666667,61.17749907475931 107.60000000000001,60.13826859021798 C 108.40444279957212,59.655960043841965 108.9,58.76461709275204 108.9,57.8 C 108.9,55.72153903091734 106.73333333333335,54.42250092524068 105.00000000000001,55.46173140978201 C 104.1955572004279,55.94403995615803 103.7,56.835382907247954 103.7,57.8" fill="rgb(42, 110, 209)" stroke="rgba(255,255,255,0.01)"/><path d="M 52.3,100.5 L 45.5,100.5 C 44.4,100.5 43.5,99.6 43.5,98.5 L 43.5,86.7 C 43.5,85.60000000000001 44.4,84.7 45.5,84.7 L 52.3,84.7 C 53.4,84.7 54.3,85.60000000000001 54.3,86.7 L 54.3,98.5 C 54.3,99.6 53.4,100.5 52.3,100.5 Z" fill="rgb(27, 46, 61)" stroke="rgba(255,255,255,0.01)"/><path d="M 96.9,91 L 0.8,91 C 0.20000000000000007,91 -0.19999999999999996,90.5 -0.19999999999999996,90 L -0.19999999999999996,30 C -0.19999999999999996,29.4 0.30000000000000004,29 0.8,29 L 96.89999999999999,29 C 97.49999999999999,29 97.89999999999999,29.5 97.89999999999999,30 L 97.89999999999999,90 C 97.89999999999999,90.6 97.49999999999999,91 96.89999999999999,91 Z" fill="rgb(50, 69, 86)" stroke="rgba(255,255,255,0.01)"/><path d="M 95.1,89 L 2.7,89 C 2.1,89 1.7000000000000002,88.5 1.7000000000000002,88 L 1.7000000000000002,32.1 C 1.7000000000000002,31.5 2.2,31.1 2.7,31.1 L 95.10000000000001,31.1 C 95.7,31.1 96.10000000000001,31.6 96.10000000000001,32.1 L 96.10000000000001,88 C 96.10000000000001,88.5 95.60000000000001,89 95.10000000000001,89 Z" fill="rgb(220, 241, 249)" stroke="rgba(255,255,255,0.01)"/><path d="M 71,102.3 L 26.8,102.3 C 26.1,102.3 25.5,101.7 25.5,101 L 25.5,100.5 C 25.5,99.8 26.1,99.2 26.8,99.2 L 71,99.2 C 71.7,99.2 72.3,99.8 72.3,100.5 L 72.3,101 C 72.3,101.7 71.7,102.3 71,102.3 Z" fill="rgb(34, 38, 40)" stroke="rgba(255,255,255,0.01)"/><path d="M 71.6,101.5 L 26.1,101.5 C 25.700000000000003,101.5 25.400000000000002,101.2 25.400000000000002,100.8 L 25.400000000000002,99.39999999999999 C 25.400000000000002,98.99999999999999 25.700000000000003,98.69999999999999 26.1,98.69999999999999 L 71.6,98.69999999999999 C 72,98.69999999999999 72.3,98.99999999999999 72.3,99.39999999999999 L 72.3,100.8 C 72.3,101.2 72,101.5 71.6,101.5 Z" fill="rgb(50, 69, 86)" stroke="rgba(255,255,255,0.01)"/></g><g transform="translate(1015, 270) rotate(0, 0, 0)" width="0" height="36"><text text-decoration="none" x="0" fill="#4b4b4b" font-size="10pt" font-family="noto_regular"  y="15"></text></g></g><g id="hZ7YShA7hMu"><g transform="translate(1320 470)"><rect x="0" y="0" width="130" height="110" fill="rgba(255,255,255,0.01)" stroke="rgba(255,255,255,0.01)"/><path d="M 127.9,110 L 84.3,110 C 83.1,110 82.2,109 82.2,107.9 L 82.2,2.1 C 82.2,0.9000000000000001 83.2,0 84.3,0 L 127.9,0 C 129.1,0 130,1 130,2.1 L 130,107.8 C 130,109 129,110 127.9,110 Z" fill="rgb(27, 46, 61)" stroke="rgba(255,255,255,0.01)"/><path d="M 125.4,105.1 L 86.3,105.1 C 85.1,105.1 84.2,104.1 84.2,103 L 84.2,4.2 C 84.2,3 85.2,2.1 86.3,2.1 L 125.4,2.1 C 126.60000000000001,2.1 127.5,3.1 127.5,4.2 L 127.5,103 C 127.5,104.2 126.5,105.1 125.4,105.1 Z" fill="rgb(216, 221, 225)" stroke="rgba(255,255,255,0.01)"/><path d="M 122.9,10.3 L 89.2,10.3 C 88.60000000000001,10.3 88.2,9.8 88.2,9.3 L 88.2,8.1 C 88.2,7.5 88.7,7.1 89.2,7.1 L 122.9,7.1 C 123.5,7.1 123.9,7.6 123.9,8.1 L 123.9,9.299999999999999 C 123.9,9.799999999999999 123.5,10.299999999999999 122.9,10.299999999999999 Z M 123.10000000000001,24.700000000000003 L 89.4,24.700000000000003 C 88.80000000000001,24.700000000000003 88.4,24.200000000000003 88.4,23.700000000000003 L 88.4,19.700000000000003 C 88.4,19.1 88.9,18.700000000000003 89.4,18.700000000000003 L 123.10000000000001,18.700000000000003 C 123.7,18.700000000000003 124.10000000000001,19.200000000000003 124.10000000000001,19.700000000000003 L 124.10000000000001,23.700000000000003 C 124.10000000000001,24.200000000000003 123.7,24.700000000000003 123.10000000000001,24.700000000000003 Z" fill="rgb(54, 72, 92)" stroke="rgba(255,255,255,0.01)"/><path d="M 123.6,106.1 L 88.9,106.1 C 88.60000000000001,106.1 88.4,105.89999999999999 88.4,105.6 L 88.4,105 C 88.4,104.7 88.60000000000001,104.5 88.9,104.5 L 123.60000000000001,104.5 C 123.9,104.5 124.10000000000001,104.7 124.10000000000001,105 L 124.10000000000001,105.5 C 124.10000000000001,105.9 123.9,106.1 123.60000000000001,106.1 Z" fill="rgb(42, 110, 209)" stroke="rgba(255,255,255,0.01)"/><path d="M 82.1,78 L 130,78 L 130,79 L 82.1,79 Z M 82.1,14 L 130,14 L 130,15 L 82.1,15 Z" fill="rgb(73, 90, 94)" stroke="rgba(255,255,255,0.01)"/><path d="M 103.7,57.8 C 103.7,59.87846096908265 105.86666666666667,61.17749907475931 107.60000000000001,60.13826859021798 C 108.40444279957212,59.655960043841965 108.9,58.76461709275204 108.9,57.8 C 108.9,55.72153903091734 106.73333333333335,54.42250092524068 105.00000000000001,55.46173140978201 C 104.1955572004279,55.94403995615803 103.7,56.835382907247954 103.7,57.8" fill="rgb(42, 110, 209)" stroke="rgba(255,255,255,0.01)"/><path d="M 52.3,100.5 L 45.5,100.5 C 44.4,100.5 43.5,99.6 43.5,98.5 L 43.5,86.7 C 43.5,85.60000000000001 44.4,84.7 45.5,84.7 L 52.3,84.7 C 53.4,84.7 54.3,85.60000000000001 54.3,86.7 L 54.3,98.5 C 54.3,99.6 53.4,100.5 52.3,100.5 Z" fill="rgb(27, 46, 61)" stroke="rgba(255,255,255,0.01)"/><path d="M 96.9,91 L 0.8,91 C 0.20000000000000007,91 -0.19999999999999996,90.5 -0.19999999999999996,90 L -0.19999999999999996,30 C -0.19999999999999996,29.4 0.30000000000000004,29 0.8,29 L 96.89999999999999,29 C 97.49999999999999,29 97.89999999999999,29.5 97.89999999999999,30 L 97.89999999999999,90 C 97.89999999999999,90.6 97.49999999999999,91 96.89999999999999,91 Z" fill="rgb(50, 69, 86)" stroke="rgba(255,255,255,0.01)"/><path d="M 95.1,89 L 2.7,89 C 2.1,89 1.7000000000000002,88.5 1.7000000000000002,88 L 1.7000000000000002,32.1 C 1.7000000000000002,31.5 2.2,31.1 2.7,31.1 L 95.10000000000001,31.1 C 95.7,31.1 96.10000000000001,31.6 96.10000000000001,32.1 L 96.10000000000001,88 C 96.10000000000001,88.5 95.60000000000001,89 95.10000000000001,89 Z" fill="rgb(220, 241, 249)" stroke="rgba(255,255,255,0.01)"/><path d="M 71,102.3 L 26.8,102.3 C 26.1,102.3 25.5,101.7 25.5,101 L 25.5,100.5 C 25.5,99.8 26.1,99.2 26.8,99.2 L 71,99.2 C 71.7,99.2 72.3,99.8 72.3,100.5 L 72.3,101 C 72.3,101.7 71.7,102.3 71,102.3 Z" fill="rgb(34, 38, 40)" stroke="rgba(255,255,255,0.01)"/><path d="M 71.6,101.5 L 26.1,101.5 C 25.700000000000003,101.5 25.400000000000002,101.2 25.400000000000002,100.8 L 25.400000000000002,99.39999999999999 C 25.400000000000002,98.99999999999999 25.700000000000003,98.69999999999999 26.1,98.69999999999999 L 71.6,98.69999999999999 C 72,98.69999999999999 72.3,98.99999999999999 72.3,99.39999999999999 L 72.3,100.8 C 72.3,101.2 72,101.5 71.6,101.5 Z" fill="rgb(50, 69, 86)" stroke="rgba(255,255,255,0.01)"/></g><g transform="translate(1385, 590) rotate(0, 0, 0)" width="0" height="36"><text text-decoration="none" x="0" fill="#4b4b4b" font-size="10pt" font-family="noto_regular"  y="15"></text></g></g><g id="0Nitiv446Rx"><g transform="translate(700 570)"><rect x="0" y="0" width="130" height="110" fill="rgba(255,255,255,0.01)" stroke="rgba(255,255,255,0.01)"/><path d="M 127.9,110 L 84.3,110 C 83.1,110 82.2,109 82.2,107.9 L 82.2,2.1 C 82.2,0.9000000000000001 83.2,0 84.3,0 L 127.9,0 C 129.1,0 130,1 130,2.1 L 130,107.8 C 130,109 129,110 127.9,110 Z" fill="rgb(27, 46, 61)" stroke="rgba(255,255,255,0.01)"/><path d="M 125.4,105.1 L 86.3,105.1 C 85.1,105.1 84.2,104.1 84.2,103 L 84.2,4.2 C 84.2,3 85.2,2.1 86.3,2.1 L 125.4,2.1 C 126.60000000000001,2.1 127.5,3.1 127.5,4.2 L 127.5,103 C 127.5,104.2 126.5,105.1 125.4,105.1 Z" fill="rgb(216, 221, 225)" stroke="rgba(255,255,255,0.01)"/><path d="M 122.9,10.3 L 89.2,10.3 C 88.60000000000001,10.3 88.2,9.8 88.2,9.3 L 88.2,8.1 C 88.2,7.5 88.7,7.1 89.2,7.1 L 122.9,7.1 C 123.5,7.1 123.9,7.6 123.9,8.1 L 123.9,9.299999999999999 C 123.9,9.799999999999999 123.5,10.299999999999999 122.9,10.299999999999999 Z M 123.10000000000001,24.700000000000003 L 89.4,24.700000000000003 C 88.80000000000001,24.700000000000003 88.4,24.200000000000003 88.4,23.700000000000003 L 88.4,19.700000000000003 C 88.4,19.1 88.9,18.700000000000003 89.4,18.700000000000003 L 123.10000000000001,18.700000000000003 C 123.7,18.700000000000003 124.10000000000001,19.200000000000003 124.10000000000001,19.700000000000003 L 124.10000000000001,23.700000000000003 C 124.10000000000001,24.200000000000003 123.7,24.700000000000003 123.10000000000001,24.700000000000003 Z" fill="rgb(54, 72, 92)" stroke="rgba(255,255,255,0.01)"/><path d="M 123.6,106.1 L 88.9,106.1 C 88.60000000000001,106.1 88.4,105.89999999999999 88.4,105.6 L 88.4,105 C 88.4,104.7 88.60000000000001,104.5 88.9,104.5 L 123.60000000000001,104.5 C 123.9,104.5 124.10000000000001,104.7 124.10000000000001,105 L 124.10000000000001,105.5 C 124.10000000000001,105.9 123.9,106.1 123.60000000000001,106.1 Z" fill="rgb(42, 110, 209)" stroke="rgba(255,255,255,0.01)"/><path d="M 82.1,78 L 130,78 L 130,79 L 82.1,79 Z M 82.1,14 L 130,14 L 130,15 L 82.1,15 Z" fill="rgb(73, 90, 94)" stroke="rgba(255,255,255,0.01)"/><path d="M 103.7,57.8 C 103.7,59.87846096908265 105.86666666666667,61.17749907475931 107.60000000000001,60.13826859021798 C 108.40444279957212,59.655960043841965 108.9,58.76461709275204 108.9,57.8 C 108.9,55.72153903091734 106.73333333333335,54.42250092524068 105.00000000000001,55.46173140978201 C 104.1955572004279,55.94403995615803 103.7,56.835382907247954 103.7,57.8" fill="rgb(42, 110, 209)" stroke="rgba(255,255,255,0.01)"/><path d="M 52.3,100.5 L 45.5,100.5 C 44.4,100.5 43.5,99.6 43.5,98.5 L 43.5,86.7 C 43.5,85.60000000000001 44.4,84.7 45.5,84.7 L 52.3,84.7 C 53.4,84.7 54.3,85.60000000000001 54.3,86.7 L 54.3,98.5 C 54.3,99.6 53.4,100.5 52.3,100.5 Z" fill="rgb(27, 46, 61)" stroke="rgba(255,255,255,0.01)"/><path d="M 96.9,91 L 0.8,91 C 0.20000000000000007,91 -0.19999999999999996,90.5 -0.19999999999999996,90 L -0.19999999999999996,30 C -0.19999999999999996,29.4 0.30000000000000004,29 0.8,29 L 96.89999999999999,29 C 97.49999999999999,29 97.89999999999999,29.5 97.89999999999999,30 L 97.89999999999999,90 C 97.89999999999999,90.6 97.49999999999999,91 96.89999999999999,91 Z" fill="rgb(50, 69, 86)" stroke="rgba(255,255,255,0.01)"/><path d="M 95.1,89 L 2.7,89 C 2.1,89 1.7000000000000002,88.5 1.7000000000000002,88 L 1.7000000000000002,32.1 C 1.7000000000000002,31.5 2.2,31.1 2.7,31.1 L 95.10000000000001,31.1 C 95.7,31.1 96.10000000000001,31.6 96.10000000000001,32.1 L 96.10000000000001,88 C 96.10000000000001,88.5 95.60000000000001,89 95.10000000000001,89 Z" fill="rgb(220, 241, 249)" stroke="rgba(255,255,255,0.01)"/><path d="M 71,102.3 L 26.8,102.3 C 26.1,102.3 25.5,101.7 25.5,101 L 25.5,100.5 C 25.5,99.8 26.1,99.2 26.8,99.2 L 71,99.2 C 71.7,99.2 72.3,99.8 72.3,100.5 L 72.3,101 C 72.3,101.7 71.7,102.3 71,102.3 Z" fill="rgb(34, 38, 40)" stroke="rgba(255,255,255,0.01)"/><path d="M 71.6,101.5 L 26.1,101.5 C 25.700000000000003,101.5 25.400000000000002,101.2 25.400000000000002,100.8 L 25.400000000000002,99.39999999999999 C 25.400000000000002,98.99999999999999 25.700000000000003,98.69999999999999 26.1,98.69999999999999 L 71.6,98.69999999999999 C 72,98.69999999999999 72.3,98.99999999999999 72.3,99.39999999999999 L 72.3,100.8 C 72.3,101.2 72,101.5 71.6,101.5 Z" fill="rgb(50, 69, 86)" stroke="rgba(255,255,255,0.01)"/></g><g transform="translate(765, 690) rotate(0, 0, 0)" width="0" height="36"><text text-decoration="none" x="0" fill="#4b4b4b" font-size="10pt" font-family="noto_regular"  y="15"></text></g></g><g id="VxAJhz2pPTe"><g transform="translate(1080 670)"><rect x="0" y="0" width="130" height="110" fill="rgba(255,255,255,0.01)" stroke="rgba(255,255,255,0.01)"/><path d="M 127.9,110 L 84.3,110 C 83.1,110 82.2,109 82.2,107.9 L 82.2,2.1 C 82.2,0.9000000000000001 83.2,0 84.3,0 L 127.9,0 C 129.1,0 130,1 130,2.1 L 130,107.8 C 130,109 129,110 127.9,110 Z" fill="rgb(27, 46, 61)" stroke="rgba(255,255,255,0.01)"/><path d="M 125.4,105.1 L 86.3,105.1 C 85.1,105.1 84.2,104.1 84.2,103 L 84.2,4.2 C 84.2,3 85.2,2.1 86.3,2.1 L 125.4,2.1 C 126.60000000000001,2.1 127.5,3.1 127.5,4.2 L 127.5,103 C 127.5,104.2 126.5,105.1 125.4,105.1 Z" fill="rgb(216, 221, 225)" stroke="rgba(255,255,255,0.01)"/><path d="M 122.9,10.3 L 89.2,10.3 C 88.60000000000001,10.3 88.2,9.8 88.2,9.3 L 88.2,8.1 C 88.2,7.5 88.7,7.1 89.2,7.1 L 122.9,7.1 C 123.5,7.1 123.9,7.6 123.9,8.1 L 123.9,9.299999999999999 C 123.9,9.799999999999999 123.5,10.299999999999999 122.9,10.299999999999999 Z M 123.10000000000001,24.700000000000003 L 89.4,24.700000000000003 C 88.80000000000001,24.700000000000003 88.4,24.200000000000003 88.4,23.700000000000003 L 88.4,19.700000000000003 C 88.4,19.1 88.9,18.700000000000003 89.4,18.700000000000003 L 123.10000000000001,18.700000000000003 C 123.7,18.700000000000003 124.10000000000001,19.200000000000003 124.10000000000001,19.700000000000003 L 124.10000000000001,23.700000000000003 C 124.10000000000001,24.200000000000003 123.7,24.700000000000003 123.10000000000001,24.700000000000003 Z" fill="rgb(54, 72, 92)" stroke="rgba(255,255,255,0.01)"/><path d="M 123.6,106.1 L 88.9,106.1 C 88.60000000000001,106.1 88.4,105.89999999999999 88.4,105.6 L 88.4,105 C 88.4,104.7 88.60000000000001,104.5 88.9,104.5 L 123.60000000000001,104.5 C 123.9,104.5 124.10000000000001,104.7 124.10000000000001,105 L 124.10000000000001,105.5 C 124.10000000000001,105.9 123.9,106.1 123.60000000000001,106.1 Z" fill="rgb(42, 110, 209)" stroke="rgba(255,255,255,0.01)"/><path d="M 82.1,78 L 130,78 L 130,79 L 82.1,79 Z M 82.1,14 L 130,14 L 130,15 L 82.1,15 Z" fill="rgb(73, 90, 94)" stroke="rgba(255,255,255,0.01)"/><path d="M 103.7,57.8 C 103.7,59.87846096908265 105.86666666666667,61.17749907475931 107.60000000000001,60.13826859021798 C 108.40444279957212,59.655960043841965 108.9,58.76461709275204 108.9,57.8 C 108.9,55.72153903091734 106.73333333333335,54.42250092524068 105.00000000000001,55.46173140978201 C 104.1955572004279,55.94403995615803 103.7,56.835382907247954 103.7,57.8" fill="rgb(42, 110, 209)" stroke="rgba(255,255,255,0.01)"/><path d="M 52.3,100.5 L 45.5,100.5 C 44.4,100.5 43.5,99.6 43.5,98.5 L 43.5,86.7 C 43.5,85.60000000000001 44.4,84.7 45.5,84.7 L 52.3,84.7 C 53.4,84.7 54.3,85.60000000000001 54.3,86.7 L 54.3,98.5 C 54.3,99.6 53.4,100.5 52.3,100.5 Z" fill="rgb(27, 46, 61)" stroke="rgba(255,255,255,0.01)"/><path d="M 96.9,91 L 0.8,91 C 0.20000000000000007,91 -0.19999999999999996,90.5 -0.19999999999999996,90 L -0.19999999999999996,30 C -0.19999999999999996,29.4 0.30000000000000004,29 0.8,29 L 96.89999999999999,29 C 97.49999999999999,29 97.89999999999999,29.5 97.89999999999999,30 L 97.89999999999999,90 C 97.89999999999999,90.6 97.49999999999999,91 96.89999999999999,91 Z" fill="rgb(50, 69, 86)" stroke="rgba(255,255,255,0.01)"/><path d="M 95.1,89 L 2.7,89 C 2.1,89 1.7000000000000002,88.5 1.7000000000000002,88 L 1.7000000000000002,32.1 C 1.7000000000000002,31.5 2.2,31.1 2.7,31.1 L 95.10000000000001,31.1 C 95.7,31.1 96.10000000000001,31.6 96.10000000000001,32.1 L 96.10000000000001,88 C 96.10000000000001,88.5 95.60000000000001,89 95.10000000000001,89 Z" fill="rgb(220, 241, 249)" stroke="rgba(255,255,255,0.01)"/><path d="M 71,102.3 L 26.8,102.3 C 26.1,102.3 25.5,101.7 25.5,101 L 25.5,100.5 C 25.5,99.8 26.1,99.2 26.8,99.2 L 71,99.2 C 71.7,99.2 72.3,99.8 72.3,100.5 L 72.3,101 C 72.3,101.7 71.7,102.3 71,102.3 Z" fill="rgb(34, 38, 40)" stroke="rgba(255,255,255,0.01)"/><path d="M 71.6,101.5 L 26.1,101.5 C 25.700000000000003,101.5 25.400000000000002,101.2 25.400000000000002,100.8 L 25.400000000000002,99.39999999999999 C 25.400000000000002,98.99999999999999 25.700000000000003,98.69999999999999 26.1,98.69999999999999 L 71.6,98.69999999999999 C 72,98.69999999999999 72.3,98.99999999999999 72.3,99.39999999999999 L 72.3,100.8 C 72.3,101.2 72,101.5 71.6,101.5 Z" fill="rgb(50, 69, 86)" stroke="rgba(255,255,255,0.01)"/></g><g transform="translate(1145, 790) rotate(0, 0, 0)" width="0" height="36"><text text-decoration="none" x="0" fill="#4b4b4b" font-size="10pt" font-family="noto_regular"  y="15"></text></g></g><g id="AHhd06vZFTK"><g transform="translate(1210 230)"><rect x="0" y="0" width="130" height="110" fill="rgba(255,255,255,0.01)" stroke="rgba(255,255,255,0.01)"/><path d="M 127.9,110 L 84.3,110 C 83.1,110 82.2,109 82.2,107.9 L 82.2,2.1 C 82.2,0.9000000000000001 83.2,0 84.3,0 L 127.9,0 C 129.1,0 130,1 130,2.1 L 130,107.8 C 130,109 129,110 127.9,110 Z" fill="rgb(27, 46, 61)" stroke="rgba(255,255,255,0.01)"/><path d="M 125.4,105.1 L 86.3,105.1 C 85.1,105.1 84.2,104.1 84.2,103 L 84.2,4.2 C 84.2,3 85.2,2.1 86.3,2.1 L 125.4,2.1 C 126.60000000000001,2.1 127.5,3.1 127.5,4.2 L 127.5,103 C 127.5,104.2 126.5,105.1 125.4,105.1 Z" fill="rgb(216, 221, 225)" stroke="rgba(255,255,255,0.01)"/><path d="M 122.9,10.3 L 89.2,10.3 C 88.60000000000001,10.3 88.2,9.8 88.2,9.3 L 88.2,8.1 C 88.2,7.5 88.7,7.1 89.2,7.1 L 122.9,7.1 C 123.5,7.1 123.9,7.6 123.9,8.1 L 123.9,9.299999999999999 C 123.9,9.799999999999999 123.5,10.299999999999999 122.9,10.299999999999999 Z M 123.10000000000001,24.700000000000003 L 89.4,24.700000000000003 C 88.80000000000001,24.700000000000003 88.4,24.200000000000003 88.4,23.700000000000003 L 88.4,19.700000000000003 C 88.4,19.1 88.9,18.700000000000003 89.4,18.700000000000003 L 123.10000000000001,18.700000000000003 C 123.7,18.700000000000003 124.10000000000001,19.200000000000003 124.10000000000001,19.700000000000003 L 124.10000000000001,23.700000000000003 C 124.10000000000001,24.200000000000003 123.7,24.700000000000003 123.10000000000001,24.700000000000003 Z" fill="rgb(54, 72, 92)" stroke="rgba(255,255,255,0.01)"/><path d="M 123.6,106.1 L 88.9,106.1 C 88.60000000000001,106.1 88.4,105.89999999999999 88.4,105.6 L 88.4,105 C 88.4,104.7 88.60000000000001,104.5 88.9,104.5 L 123.60000000000001,104.5 C 123.9,104.5 124.10000000000001,104.7 124.10000000000001,105 L 124.10000000000001,105.5 C 124.10000000000001,105.9 123.9,106.1 123.60000000000001,106.1 Z" fill="rgb(42, 110, 209)" stroke="rgba(255,255,255,0.01)"/><path d="M 82.1,78 L 130,78 L 130,79 L 82.1,79 Z M 82.1,14 L 130,14 L 130,15 L 82.1,15 Z" fill="rgb(73, 90, 94)" stroke="rgba(255,255,255,0.01)"/><path d="M 103.7,57.8 C 103.7,59.87846096908265 105.86666666666667,61.17749907475931 107.60000000000001,60.13826859021798 C 108.40444279957212,59.655960043841965 108.9,58.76461709275204 108.9,57.8 C 108.9,55.72153903091734 106.73333333333335,54.42250092524068 105.00000000000001,55.46173140978201 C 104.1955572004279,55.94403995615803 103.7,56.835382907247954 103.7,57.8" fill="rgb(42, 110, 209)" stroke="rgba(255,255,255,0.01)"/><path d="M 52.3,100.5 L 45.5,100.5 C 44.4,100.5 43.5,99.6 43.5,98.5 L 43.5,86.7 C 43.5,85.60000000000001 44.4,84.7 45.5,84.7 L 52.3,84.7 C 53.4,84.7 54.3,85.60000000000001 54.3,86.7 L 54.3,98.5 C 54.3,99.6 53.4,100.5 52.3,100.5 Z" fill="rgb(27, 46, 61)" stroke="rgba(255,255,255,0.01)"/><path d="M 96.9,91 L 0.8,91 C 0.20000000000000007,91 -0.19999999999999996,90.5 -0.19999999999999996,90 L -0.19999999999999996,30 C -0.19999999999999996,29.4 0.30000000000000004,29 0.8,29 L 96.89999999999999,29 C 97.49999999999999,29 97.89999999999999,29.5 97.89999999999999,30 L 97.89999999999999,90 C 97.89999999999999,90.6 97.49999999999999,91 96.89999999999999,91 Z" fill="rgb(50, 69, 86)" stroke="rgba(255,255,255,0.01)"/><path d="M 95.1,89 L 2.7,89 C 2.1,89 1.7000000000000002,88.5 1.7000000000000002,88 L 1.7000000000000002,32.1 C 1.7000000000000002,31.5 2.2,31.1 2.7,31.1 L 95.10000000000001,31.1 C 95.7,31.1 96.10000000000001,31.6 96.10000000000001,32.1 L 96.10000000000001,88 C 96.10000000000001,88.5 95.60000000000001,89 95.10000000000001,89 Z" fill="rgb(220, 241, 249)" stroke="rgba(255,255,255,0.01)"/><path d="M 71,102.3 L 26.8,102.3 C 26.1,102.3 25.5,101.7 25.5,101 L 25.5,100.5 C 25.5,99.8 26.1,99.2 26.8,99.2 L 71,99.2 C 71.7,99.2 72.3,99.8 72.3,100.5 L 72.3,101 C 72.3,101.7 71.7,102.3 71,102.3 Z" fill="rgb(34, 38, 40)" stroke="rgba(255,255,255,0.01)"/><path d="M 71.6,101.5 L 26.1,101.5 C 25.700000000000003,101.5 25.400000000000002,101.2 25.400000000000002,100.8 L 25.400000000000002,99.39999999999999 C 25.400000000000002,98.99999999999999 25.700000000000003,98.69999999999999 26.1,98.69999999999999 L 71.6,98.69999999999999 C 72,98.69999999999999 72.3,98.99999999999999 72.3,99.39999999999999 L 72.3,100.8 C 72.3,101.2 72,101.5 71.6,101.5 Z" fill="rgb(50, 69, 86)" stroke="rgba(255,255,255,0.01)"/></g><g transform="translate(1275, 350) rotate(0, 0, 0)" width="0" height="36"><text text-decoration="none" x="0" fill="#4b4b4b" font-size="10pt" font-family="noto_regular"  y="15"></text></g></g><g id="uDBcYceqR5X"><g><path d="M 1015,260 L 1015,340 Q 1015,350 1025,350 L 1038,350 L 1050,350 Q 1060,350 1060,360 L 1060,440" fill="none" stroke="#7E7E7E" stroke-width="2" stroke-linecap="round" stroke-linejoin="round"/></g></g><g id="idlCnB3gfHB"><g><path d="M 840,375 L 905,375 Q 915,375 915,385 L 915,416 L 915,447 Q 915,457 925,457 L 990,457" fill="none" stroke="#7E7E7E" stroke-width="2" stroke-linecap="round" stroke-linejoin="round"/></g></g><g id="wNyxjB6791j"><g><path d="M 1275,340 L 1275,445 Q 1275,455 1265,455 L 1130,455" fill="none" stroke="#7E7E7E" stroke-width="2" stroke-linecap="round" stroke-linejoin="round"/></g></g><g id="KbZdopMUXKF"><g><path d="M 1320,525 L 1108,525 Q 1098,525 1098,515 L 1098,470" fill="none" stroke="#7E7E7E" stroke-width="2" stroke-linecap="round" stroke-linejoin="round"/></g></g><g id="ZSMOuZI0s26"><g><path d="M 1141,699 L 1141,594.5 Q 1141,584.5 1131.0007811584592,584.6249902355192 L 1101,585 L 1069.999256477935,584.6219421521699 Q 1060,584.5 1060,574.5 L 1060,470" fill="none" stroke="#7E7E7E" stroke-width="2" stroke-linecap="round" stroke-linejoin="round"/></g></g><g id="UF5TtULje8C"><g><path d="M 830,625 L 1006,625 Q 1016,625 1016,615 L 1016,470" fill="none" stroke="#7E7E7E" stroke-width="2" stroke-linecap="round" stroke-linejoin="round"/></g></g></svg>